<mxfile host="app.diagrams.net" modified="2023-03-06T16:13:17.399Z" agent="5.0 (Macintosh; Intel Mac OS X 10_15_7) AppleWebKit/537.36 (KHTML, like Gecko) Chrome/110.0.0.0 Safari/537.36" etag="niyL-iffApcm6momzV6T" version="21.0.2" type="github">
  <diagram name="Page-1" id="My9dDKMCxJIYa9qUZwRU">
    <mxGraphModel dx="1061" dy="584" grid="1" gridSize="10" guides="1" tooltips="1" connect="1" arrows="1" fold="1" page="1" pageScale="1" pageWidth="850" pageHeight="1100" math="0" shadow="0">
      <root>
        <mxCell id="0" />
        <mxCell id="1" parent="0" />
        <mxCell id="GxfuvirLX9hYtF65cCjU-1" value="" style="whiteSpace=wrap;html=1;aspect=fixed;" parent="1" vertex="1">
          <mxGeometry x="220" y="70" width="530" height="530" as="geometry" />
        </mxCell>
        <mxCell id="GxfuvirLX9hYtF65cCjU-4" value="" style="rounded=0;whiteSpace=wrap;html=1;direction=south;" parent="1" vertex="1">
          <mxGeometry x="580" y="70" width="170" height="530" as="geometry" />
        </mxCell>
        <mxCell id="GxfuvirLX9hYtF65cCjU-8" value="" style="rounded=0;whiteSpace=wrap;html=1;" parent="1" vertex="1">
          <mxGeometry x="280" y="450" width="240" height="10" as="geometry" />
        </mxCell>
        <mxCell id="GxfuvirLX9hYtF65cCjU-9" value="" style="rounded=0;whiteSpace=wrap;html=1;" parent="1" vertex="1">
          <mxGeometry x="330" y="150" width="10" height="310" as="geometry" />
        </mxCell>
        <mxCell id="GxfuvirLX9hYtF65cCjU-10" value="" style="rounded=0;whiteSpace=wrap;html=1;" parent="1" vertex="1">
          <mxGeometry x="330" y="150" width="120" height="10" as="geometry" />
        </mxCell>
        <mxCell id="GxfuvirLX9hYtF65cCjU-13" value="" style="html=1;shadow=0;dashed=0;align=center;verticalAlign=middle;shape=mxgraph.arrows2.uTurnArrow;dy=1.75;arrowHead=5.5;dx2=8.25;rotation=-90;flipH=0;flipV=1;" parent="1" vertex="1">
          <mxGeometry x="410" y="190" width="90" height="27.5" as="geometry" />
        </mxCell>
        <mxCell id="GxfuvirLX9hYtF65cCjU-85" value="" style="shape=umlActor;verticalLabelPosition=bottom;verticalAlign=top;html=1;outlineConnect=0;" parent="1" vertex="1">
          <mxGeometry x="410" y="230" width="90" height="180" as="geometry" />
        </mxCell>
        <mxCell id="GxfuvirLX9hYtF65cCjU-88" value="" style="shape=xor;whiteSpace=wrap;html=1;rotation=-90;" parent="1" vertex="1">
          <mxGeometry x="453" y="250" width="4" height="22" as="geometry" />
        </mxCell>
        <mxCell id="GxfuvirLX9hYtF65cCjU-92" value="" style="shape=umlDestroy;whiteSpace=wrap;html=1;strokeWidth=3;targetShapes=umlLifeline;" parent="1" vertex="1">
          <mxGeometry x="443" y="240" width="10" height="10" as="geometry" />
        </mxCell>
        <mxCell id="GxfuvirLX9hYtF65cCjU-93" value="" style="shape=umlDestroy;whiteSpace=wrap;html=1;strokeWidth=3;targetShapes=umlLifeline;" parent="1" vertex="1">
          <mxGeometry x="460" y="240" width="10" height="10" as="geometry" />
        </mxCell>
        <mxCell id="i__Eeto2lqg5rd4xl0pE-2" value="Time:&amp;nbsp;" style="text;html=1;strokeColor=none;fillColor=none;align=center;verticalAlign=middle;whiteSpace=wrap;rounded=0;" vertex="1" parent="1">
          <mxGeometry x="580" y="70" width="60" height="30" as="geometry" />
        </mxCell>
        <mxCell id="i__Eeto2lqg5rd4xl0pE-3" value="Difficulty:&amp;nbsp;" style="text;html=1;strokeColor=none;fillColor=none;align=center;verticalAlign=middle;whiteSpace=wrap;rounded=0;" vertex="1" parent="1">
          <mxGeometry x="590" y="100" width="60" height="30" as="geometry" />
        </mxCell>
        <mxCell id="i__Eeto2lqg5rd4xl0pE-4" value="" style="rounded=0;whiteSpace=wrap;html=1;" vertex="1" parent="1">
          <mxGeometry x="580" y="130" width="170" height="35" as="geometry" />
        </mxCell>
        <mxCell id="i__Eeto2lqg5rd4xl0pE-7" value="&lt;u&gt;&lt;font style=&quot;font-size: 18px;&quot;&gt;Guessed Letters&lt;/font&gt;&lt;/u&gt;" style="text;html=1;strokeColor=none;fillColor=none;align=center;verticalAlign=middle;whiteSpace=wrap;rounded=0;" vertex="1" parent="1">
          <mxGeometry x="590" y="165" width="150" height="40" as="geometry" />
        </mxCell>
        <mxCell id="i__Eeto2lqg5rd4xl0pE-9" value="" style="whiteSpace=wrap;html=1;aspect=fixed;" vertex="1" parent="1">
          <mxGeometry x="580" y="430" width="170" height="170" as="geometry" />
        </mxCell>
        <mxCell id="i__Eeto2lqg5rd4xl0pE-10" value="&lt;u&gt;&lt;font style=&quot;font-size: 18px;&quot;&gt;Guessed Letters&lt;/font&gt;&lt;/u&gt;" style="text;html=1;strokeColor=none;fillColor=none;align=center;verticalAlign=middle;whiteSpace=wrap;rounded=0;" vertex="1" parent="1">
          <mxGeometry x="590" y="165" width="150" height="40" as="geometry" />
        </mxCell>
        <mxCell id="i__Eeto2lqg5rd4xl0pE-11" value="&lt;u&gt;&lt;font style=&quot;font-size: 18px;&quot;&gt;Correct Letters&lt;br&gt;&lt;/font&gt;&lt;/u&gt;" style="text;html=1;strokeColor=none;fillColor=none;align=center;verticalAlign=middle;whiteSpace=wrap;rounded=0;" vertex="1" parent="1">
          <mxGeometry x="590" y="430" width="150" height="40" as="geometry" />
        </mxCell>
        <mxCell id="i__Eeto2lqg5rd4xl0pE-12" value="" style="rounded=0;whiteSpace=wrap;html=1;" vertex="1" parent="1">
          <mxGeometry x="220" y="470" width="360" height="130" as="geometry" />
        </mxCell>
        <mxCell id="i__Eeto2lqg5rd4xl0pE-17" value="" style="line;strokeWidth=2;html=1;" vertex="1" parent="1">
          <mxGeometry x="240" y="520" width="30" height="10" as="geometry" />
        </mxCell>
        <mxCell id="i__Eeto2lqg5rd4xl0pE-18" value="" style="line;strokeWidth=2;html=1;" vertex="1" parent="1">
          <mxGeometry x="280" y="520" width="30" height="10" as="geometry" />
        </mxCell>
        <mxCell id="i__Eeto2lqg5rd4xl0pE-19" value="" style="line;strokeWidth=2;html=1;" vertex="1" parent="1">
          <mxGeometry x="320" y="520" width="30" height="10" as="geometry" />
        </mxCell>
        <mxCell id="i__Eeto2lqg5rd4xl0pE-20" value="" style="line;strokeWidth=2;html=1;" vertex="1" parent="1">
          <mxGeometry x="360" y="520" width="30" height="10" as="geometry" />
        </mxCell>
        <mxCell id="i__Eeto2lqg5rd4xl0pE-21" value="" style="line;strokeWidth=2;html=1;" vertex="1" parent="1">
          <mxGeometry x="400" y="520" width="30" height="10" as="geometry" />
        </mxCell>
        <mxCell id="i__Eeto2lqg5rd4xl0pE-22" value="" style="line;strokeWidth=2;html=1;" vertex="1" parent="1">
          <mxGeometry x="440" y="520" width="30" height="10" as="geometry" />
        </mxCell>
        <mxCell id="i__Eeto2lqg5rd4xl0pE-23" value="" style="line;strokeWidth=2;html=1;" vertex="1" parent="1">
          <mxGeometry x="480" y="520" width="30" height="10" as="geometry" />
        </mxCell>
      </root>
    </mxGraphModel>
  </diagram>
</mxfile>
